PathFileType	4	(X/Y/Z)	/Users/itak/Documents/Research/Walk-IL/dataset/trc/00329_00011.trc
DataRate	CameraRate	NumFrames	NumMarkers	Units	OrigDataRate	OrigDataStartFrame	OrigNumFrames
100.000000	100.000000	4	53	mm	100.000000	137	548
Frame#	Time	RPSI			LPSI			L3			STRN			T10			C7			CLAV			RBAK			LBAK			LSHO			LUPA			LAEL			LAOL			LWTS			LWPS			LFRA			LIFD			LHPS			LHTS			RSHO			RUPA			RAEL			RAOL			RWTS			RWPS			RFRA			RIFD			RHTS			RHPS			RBHD			LFHD			RFHD			LBHD			LHIP			RHIP			RASI			LASI			LKNE			LTHI			LANK			LTIP			LTOE			LMT5			LHEE			RKNE			RTHI			RANK			RTIP			RTOE			RMT1			RMT5			RHEE			LMT1			
		X1	Y1	Z1	X2	Y2	Z2	X3	Y3	Z3	X4	Y4	Z4	X5	Y5	Z5	X6	Y6	Z6	X7	Y7	Z7	X8	Y8	Z8	X9	Y9	Z9	X10	Y10	Z10	X11	Y11	Z11	X12	Y12	Z12	X13	Y13	Z13	X14	Y14	Z14	X15	Y15	Z15	X16	Y16	Z16	X17	Y17	Z17	X18	Y18	Z18	X19	Y19	Z19	X20	Y20	Z20	X21	Y21	Z21	X22	Y22	Z22	X23	Y23	Z23	X24	Y24	Z24	X25	Y25	Z25	X26	Y26	Z26	X27	Y27	Z27	X28	Y28	Z28	X29	Y29	Z29	X30	Y30	Z30	X31	Y31	Z31	X32	Y32	Z32	X33	Y33	Z33	X34	Y34	Z34	X35	Y35	Z35	X36	Y36	Z36	X37	Y37	Z37	X38	Y38	Z38	X39	Y39	Z39	X40	Y40	Z40	X41	Y41	Z41	X42	Y42	Z42	X43	Y43	Z43	X44	Y44	Z44	X45	Y45	Z45	X46	Y46	Z46	X47	Y47	Z47	X48	Y48	Z48	X49	Y49	Z49	X50	Y50	Z50	X51	Y51	Z51	X52	Y52	Z52	X53	Y53	Z53	

138	1.37	826.4249267578125	960.2911987304688	257.8485717773438	822.8007202148438	958.009033203125	128.2156982421875	813.0055541992188	1025.69140625	199.5179748535156	1051.9990234375	1202.54150390625	172.3307800292969	813.2236328125	1144.84765625	193.4643707275391	852.1237182617188	1390.239013671875	167.9910583496094	1008.172973632812	1326.630004882812	164.9813079833984	807.7613525390625	1256.996826171875	249.0094451904297	837.876220703125	1348.348510742188	68.49971008300781	920.7288208007812	1361.738525390625	6.836392879486084	904.2793579101562	1238.6162109375	-55.49052429199219	932.1964721679688	1034.50244140625	-58.73141098022461	869.6528930664062	1021.258178710938	-3.001912355422974	1043.508178710938	801.055419921875	-3.403612613677979	1003.522338867188	784.0598754882812	-57.06461334228516	953.5703125	930.7977905273438	-60.8548469543457	1058.791259765625	641.8340454101562	10.22448444366455	1005.418579101562	714.2457275390625	-47.13430023193359	1060.64306640625	723.345458984375	-16.26604270935059	927.71728515625	1381.555541992188	325.1755676269531	926.4019165039062	1320.9072265625	396.0589599609375	943.6852416992188	1051.722778320312	434.4535827636719	878.4275512695312	1041.759399414062	364.1605834960938	1042.554565429688	826.9015502929688	358.675048828125	1026.615600585938	810.3428955078125	431.6187438964844	971.3764038085938	983.92529296875	435.8859252929688	1065.81591796875	655.2415771484375	360.2185363769531	1079.437744140625	727.7889404296875	364.4007568359375	1044.808715820312	726.9028930664062	424.631591796875	875.3087768554688	1584.665893554688	235.4141845703125	1038.021484375	1619.233154296875	109.5661392211914	1031.193481445312	1623.438232421875	210.3535919189453	858.9641723632812	1568.834350585938	92.16083526611328	913.4954833984375	899.8336791992188	25.63380813598633	910.0916748046875	910.1224365234375	366.1003112792969	1011.798095703125	940.994873046875	319.3040466308594	1029.96826171875	934.4026489257812	78.52738952636719	1043.438232421875	455.3595581054688	29.89390182495117	1017.010498046875	589.0465087890625	19.86483955383301	888.7450561523438	47.82959747314453	20.77240180969238	965.8671264648438	246.0338897705078	11.19614601135254	1093.285888671875	38.85934448242188	78.003173828125	1012.727478027344	41.11986923217773	7.094366073608398	854.7094116210938	44.7146110534668	88.475341796875	987.2407836914062	443.5685119628906	322.9413452148438	993.2555541992188	700.7073364257812	359.3450622558594	902.9428100585938	43.89677047729492	272.8563537597656	990.5919799804688	323.5086669921875	299.4552307128906	1091.232666015625	33.2056999206543	213.2860870361328	1033.0927734375	26.40123558044434	172.7973175048828	1003.153869628906	29.61976432800293	286.5568542480469	849.6060791015625	44.95511245727539	228.1452484130859	1024.296752929688	24.64336204528809	118.4831924438477	
139	1.38	824.8723754882812	959.4635620117188	258.4134521484375	820.9867553710938	956.65478515625	128.7801055908203	811.455322265625	1024.956420898438	199.938720703125	1050.358642578125	1201.585327148438	172.1893005371094	811.6163330078125	1144.029418945312	194.2601165771484	850.4888305664062	1389.586303710938	168.6023406982422	1006.535400390625	1325.698120117188	165.1161346435547	806.2786865234375	1256.189697265625	249.8462982177734	835.9461059570312	1347.632202148438	69.11316680908203	918.714599609375	1360.872924804688	7.187553882598877	902.2257690429688	1237.613891601562	-54.92375946044922	930.1333618164062	1033.528686523438	-58.14273452758789	867.8766479492188	1020.239196777344	-2.203272342681885	1042.274780273438	800.5034790039062	-3.473655462265015	1001.822875976562	783.2633056640625	-56.74479293823242	951.61279296875	929.8267211914062	-60.38738632202148	1058.257934570312	641.4002075195312	10.24203205108643	1004.067687988281	713.4839477539062	-46.69951248168945	1059.596313476562	722.8250732421875	-16.41984748840332	926.7217407226562	1380.552734375	325.5735473632812	925.7926635742188	1319.970703125	396.4743041992188	943.460205078125	1050.869018554688	435.7027893066406	877.3598022460938	1040.805053710938	365.9773864746094	1041.759521484375	826.1235961914062	359.2496032714844	1026.484252929688	809.5552978515625	432.3256225585938	971.0894775390625	983.1022338867188	436.9661560058594	1065.30078125	654.4874877929688	360.656494140625	1078.797119140625	727.0487670898438	364.6614990234375	1044.791015625	726.1634521484375	425.2811584472656	874.3570556640625	1583.77490234375	236.1637878417969	1036.915161132812	1618.504760742188	110.1646575927734	1030.218505859375	1622.591430664062	210.9304351806641	857.863037109375	1568.0693359375	92.90327453613281	911.5885620117188	898.4851684570312	26.13411903381348	908.8723754882812	909.7327880859375	366.5530090332031	1010.510498046875	940.5152587890625	319.4593811035156	1028.1630859375	933.4744262695312	78.6181640625	1046.104248046875	455.4512939453125	29.72161483764648	1018.204223632812	588.64697265625	19.65847587585449	885.4970092773438	49.70919036865234	20.88424110412598	965.3972778320312	247.1431884765625	11.13707447052002	1089.6181640625	40.15103149414062	79.14324188232422	1009.439147949219	41.89633560180664	7.899316310882568	851.155517578125	47.35704803466797	88.50185394287109	987.6167602539062	443.0794982910156	323.4571228027344	992.3338623046875	700.4268188476562	359.8133544921875	902.93505859375	43.89741134643555	272.810791015625	990.9752807617188	323.1152038574219	299.5166320800781	1091.224731445312	33.22453308105469	213.2518005371094	1033.070434570312	26.28761291503906	172.6769409179688	1003.193908691406	29.7356071472168	286.4428100585938	849.6009521484375	44.83419036865234	228.0456848144531	1020.464904785156	26.14019012451172	119.3713912963867	
140	1.39	823.4150390625	958.6746826171875	258.8680114746094	819.2722778320312	955.3663330078125	129.1979370117188	810.0137939453125	1024.202880859375	200.2383880615234	1048.585083007812	1200.797119140625	171.9762725830078	809.9630126953125	1143.218017578125	194.9486236572266	848.6040649414062	1388.969970703125	169.1091461181641	1004.672119140625	1324.924682617188	165.1735229492188	804.55078125	1255.390991210938	250.5235748291016	833.7980346679688	1346.920776367188	69.61898803710938	916.4468383789062	1360.054565429688	7.433804512023926	899.931396484375	1236.637573242188	-54.43523788452148	927.939208984375	1032.5810546875	-57.64906692504883	866.0081176757812	1019.227294921875	-1.472252249717712	1040.990356445312	800.0123901367188	-3.695960760116577	1000.015014648438	782.5170288085938	-56.52213287353516	949.5578002929688	928.8927001953125	-60.01105880737305	1057.686645507812	640.9882202148438	10.13875961303711	1002.628479003906	712.7811889648438	-46.35982513427734	1058.491088867188	722.3540649414062	-16.72716522216797	925.3833618164062	1379.610229492188	325.8820190429688	924.83740234375	1319.064819335938	396.7973327636719	943.1769409179688	1050.082153320312	436.8475036621094	876.247314453125	1039.828979492188	367.7705078125	1040.899536132812	825.36279296875	359.8374633789062	1026.387573242188	808.856689453125	433.0759887695312	970.7884521484375	982.3972778320312	437.9313354492188	1064.684814453125	653.7875366210938	361.2149047851562	1078.076049804688	726.3197631835938	364.9472045898438	1044.77099609375	725.494384765625	426.0164489746094	873.3187866210938	1583.041381835938	236.8958282470703	1035.782592773438	1617.783935546875	110.7882385253906	1029.197631835938	1621.721313476562	211.5355529785156	856.6830444335938	1567.541870117188	93.61080932617188	910.072265625	897.2821655273438	26.56746864318848	907.6565551757812	909.4111938476562	366.9432983398438	1009.263488769531	940.18212890625	319.6547546386719	1026.520141601562	932.6982421875	78.79132080078125	1048.366088867188	455.5382080078125	29.56792068481445	1019.261840820312	588.3212280273438	19.46073722839355	881.1214599609375	52.16092681884766	21.06167221069336	964.2184448242188	248.5191345214844	11.16820621490479	1084.794555664062	41.35774993896484	80.25871276855469	1005.001098632812	42.91069030761719	8.697919845581055	846.4790649414062	50.60563278198242	88.57746887207031	987.7178955078125	442.7715454101562	323.8642272949219	991.4156494140625	700.2144165039062	360.2192687988281	902.9214477539062	43.89119720458984	272.7825927734375	991.12939453125	322.8369445800781	299.6277465820312	1091.213623046875	33.24859619140625	213.2274169921875	1033.056762695312	26.21628761291504	172.5776519775391	1003.218566894531	29.80681610107422	286.3723449707031	849.569091796875	44.73403930664062	227.9692230224609	1015.445861816406	27.7767333984375	120.2603454589844	
141	1.4	822.0511474609375	957.9656372070312	259.2066650390625	817.6552734375	954.2022094726562	129.4630432128906	808.6676635742188	1023.469909667969	200.4063262939453	1046.685668945312	1200.22802734375	171.7173004150391	808.2485961914062	1142.440795898438	195.5125579833984	846.4703979492188	1388.409912109375	169.4983062744141	1002.582885742188	1324.351318359375	165.1642303466797	802.5765991210938	1254.62841796875	251.0137939453125	831.4391479492188	1346.251708984375	70.01144409179688	913.93408203125	1359.325439453125	7.578480243682861	897.4014282226562	1235.734741210938	-54.02603530883789	925.6052856445312	1031.703979492188	-57.25432968139648	864.04931640625	1018.274780273438	-0.7959913015365601	1039.654418945312	799.6282958984375	-4.080487728118896	998.0946044921875	781.862060546875	-56.3950080871582	947.398681640625	928.0419921875	-59.72260284423828	1057.081176757812	640.6529541015625	9.901792526245117	1001.092529296875	712.1766357421875	-46.11165237426758	1057.319946289062	721.9810791015625	-17.19829368591309	923.6691284179688	1378.776245117188	326.1017150878906	923.475341796875	1318.2421875	397.0261840820312	942.774169921875	1049.424926757812	437.8387451171875	875.0803833007812	1038.886352539062	369.4522094726562	1039.9716796875	824.67578125	360.447021484375	1026.302856445312	808.3252563476562	433.8731689453125	970.4454956054688	981.8771362304688	438.7458190917969	1063.952758789062	653.1793212890625	361.9317932128906	1077.277099609375	725.6627197265625	365.2789001464844	1044.727416992188	724.9576416015625	426.8328247070312	872.1819458007812	1582.500366210938	237.6001434326172	1034.621704101562	1617.083374023438	111.4270324707031	1028.121948242188	1620.844970703125	212.1668701171875	855.4146118164062	1567.28515625	94.27317810058594	908.9620361328125	896.2728881835938	26.93619155883789	906.4444580078125	909.1739501953125	367.2700500488281	1008.05810546875	940.026611328125	319.890869140625	1025.028686523438	932.1033935546875	79.05781555175781	1050.220336914062	455.646728515625	29.47903442382812	1020.200317382812	588.0789794921875	19.32485961914062	875.5206909179688	55.267578125	21.32278060913086	962.2847290039062	250.2050170898438	11.31692600250244	1078.750732421875	42.46191024780273	81.20972442626953	999.2891235351562	44.23432540893555	9.414933204650879	840.62744140625	54.52245330810547	88.750244140625	987.5803833007812	442.6502990722656	324.1355895996094	990.5010375976562	700.0863037109375	360.5616455078125	902.9060668945312	43.87936401367188	272.7736206054688	991.0841064453125	322.67236328125	299.7754821777344	1091.201171875	33.27505493164062	213.2113037109375	1033.054077148438	26.18985557556152	172.4922180175781	1003.231994628906	29.84088706970215	286.337890625	849.5132446289062	44.65868377685547	227.9184112548828	1009.204650878906	29.54160499572754	121.0589141845703	
